<?xml version="1.0" encoding="UTF-8" standalone="no"?><svg xmlns="http://www.w3.org/2000/svg" xmlns:xlink="http://www.w3.org/1999/xlink" contentScriptType="application/ecmascript" contentStyleType="text/css" height="729px" preserveAspectRatio="none" style="width:1212px;height:729px;" version="1.1" viewBox="0 0 1212 729" width="1212px" zoomAndPan="magnify"><defs><filter height="300%" id="f6tbj1rgiv6bm" width="300%" x="-1" y="-1"><feGaussianBlur result="blurOut" stdDeviation="3.0"/><feColorMatrix in="blurOut" result="blurOut2" type="matrix" values="0 0 0 0 0 0 0 0 0 0 0 0 0 0 0 0 0 0 .4 0"/><feOffset dx="6.0" dy="6.0" in="blurOut2" result="blurOut3"/><feBlend in="SourceGraphic" in2="blurOut3" mode="normal"/></filter></defs><g><text fill="#000000" font-family="sans-serif" font-size="27" lengthAdjust="spacingAndGlyphs" textLength="297" x="463.5" y="28.0283">Cars - Use case diagram</text><!--MD5=[fee662a292a0353a69bd162820bae93b]
entity User--><ellipse cx="275.25" cy="60.2109" fill="#FEFECE" filter="url(#f6tbj1rgiv6bm)" rx="12" ry="12" style="stroke: #A80036; stroke-width: 2.25;"/><path d="M275.25,72.2109 L275.25,112.7109 M255.75,84.2109 L294.75,84.2109 M275.25,112.7109 L255.75,135.2109 M275.25,112.7109 L294.75,135.2109 " fill="none" filter="url(#f6tbj1rgiv6bm)" style="stroke: #A80036; stroke-width: 2.25;"/><text fill="#000000" font-family="sans-serif" font-size="21" lengthAdjust="spacingAndGlyphs" textLength="43.5" x="253.5" y="165.2607">User</text><ellipse cx="50.6231" cy="349.6385" fill="#FFFFFF" filter="url(#f6tbj1rgiv6bm)" rx="41.6231" ry="23.1776" style="stroke: #2F4F4F; stroke-width: 2.25;"/><text fill="#000000" font-family="sans-serif" font-size="21" lengthAdjust="spacingAndGlyphs" textLength="52.5" x="24.3731" y="357.5955">Login</text><ellipse cx="204.715" cy="349.6385" fill="#FFFFFF" filter="url(#f6tbj1rgiv6bm)" rx="60.715" ry="23.1776" style="stroke: #2F4F4F; stroke-width: 2.25;"/><text fill="#000000" font-family="sans-serif" font-size="21" lengthAdjust="spacingAndGlyphs" textLength="79.5" x="164.965" y="357.5955">Register</text><ellipse cx="603.715" cy="690.1385" fill="#FFFFFF" filter="url(#f6tbj1rgiv6bm)" rx="60.715" ry="23.1776" style="stroke: #2F4F4F; stroke-width: 2.25;"/><text fill="#000000" font-family="sans-serif" font-size="21" lengthAdjust="spacingAndGlyphs" textLength="79.5" x="563.965" y="698.0955">List cars</text><!--MD5=[7fe5f86c73095111e0d0f77e9a6ca253]
entity Logged In User--><ellipse cx="1014.75" cy="301.7109" fill="#FEFECE" filter="url(#f6tbj1rgiv6bm)" rx="12" ry="12" style="stroke: #A80036; stroke-width: 2.25;"/><path d="M1014.75,313.7109 L1014.75,354.2109 M995.25,325.7109 L1034.25,325.7109 M1014.75,354.2109 L995.25,376.7109 M1014.75,354.2109 L1034.25,376.7109 " fill="none" filter="url(#f6tbj1rgiv6bm)" style="stroke: #A80036; stroke-width: 2.25;"/><text fill="#000000" font-family="sans-serif" font-size="21" lengthAdjust="spacingAndGlyphs" textLength="144" x="942.75" y="406.7607">Logged In User</text><ellipse cx="1145.419" cy="526.6385" fill="#FFFFFF" filter="url(#f6tbj1rgiv6bm)" rx="51.169" ry="23.1776" style="stroke: #2F4F4F; stroke-width: 2.25;"/><text fill="#000000" font-family="sans-serif" font-size="21" lengthAdjust="spacingAndGlyphs" textLength="66" x="1112.419" y="534.5955">Logout</text><ellipse cx="846.5422" cy="526.6385" fill="#FFFFFF" filter="url(#f6tbj1rgiv6bm)" rx="88.2922" ry="23.1776" style="stroke: #2F4F4F; stroke-width: 2.25;"/><text fill="#000000" font-family="sans-serif" font-size="21" lengthAdjust="spacingAndGlyphs" textLength="118.5" x="787.2922" y="534.5955">Create a car</text><!--MD5=[97ab183161fd5d1db7fba7485cf76add]
entity Admin--><ellipse cx="621.75" cy="301.7109" fill="#FEFECE" filter="url(#f6tbj1rgiv6bm)" rx="12" ry="12" style="stroke: #A80036; stroke-width: 2.25;"/><path d="M621.75,313.7109 L621.75,354.2109 M602.25,325.7109 L641.25,325.7109 M621.75,354.2109 L602.25,376.7109 M621.75,354.2109 L641.25,376.7109 " fill="none" filter="url(#f6tbj1rgiv6bm)" style="stroke: #A80036; stroke-width: 2.25;"/><text fill="#000000" font-family="sans-serif" font-size="21" lengthAdjust="spacingAndGlyphs" textLength="58.5" x="592.5" y="406.7607">Admin</text><ellipse cx="512.1708" cy="526.6385" fill="#FFFFFF" filter="url(#f6tbj1rgiv6bm)" rx="86.1708" ry="23.1776" style="stroke: #2F4F4F; stroke-width: 2.25;"/><text fill="#000000" font-family="sans-serif" font-size="21" lengthAdjust="spacingAndGlyphs" textLength="115.5" x="454.4208" y="534.5955">Delete a car</text><!--MD5=[5af6d7c3e037f74f83175e2986cdce5e]
link User to Login--><path d="M253.266,133.0134 C210.936,177.8844 118.4133,275.9574 74.4177,322.5924 " fill="none" id="User-&gt;Login" style="stroke: #2F4F4F; stroke-width: 1.5;"/><polygon fill="#2F4F4F" points="68.7942,328.5534,82.4216,322.8487,73.94,323.0971,73.6915,314.6155,68.7942,328.5534" style="stroke: #2F4F4F; stroke-width: 1.5;"/><!--MD5=[e0ebca121273885364fa8679885dc51a]
link User to Register--><path d="M257.277,170.5119 C243.186,218.1849 224.199,282.4149 213.336,319.1619 " fill="none" id="User-&gt;Register" style="stroke: #2F4F4F; stroke-width: 1.5;"/><polygon fill="#2F4F4F" points="211.1475,326.5704,220.7282,315.325,213.2735,319.3781,209.2204,311.9234,211.1475,326.5704" style="stroke: #2F4F4F; stroke-width: 1.5;"/><!--MD5=[7fedd4ab3136cd350c6efd31a3105a6d]
link User to List cars--><path d="M279.4005,170.9004 C288.255,261.5469 315.684,433.3329 399.75,549.9609 C440.166,606.0302 510.6855,646.5434 557.2995,668.8338 " fill="none" id="User-&gt;List cars" style="stroke: #2F4F4F; stroke-width: 1.5;"/><polygon fill="#2F4F4F" points="564.567,672.2544,554.9089,661.0754,557.7815,669.0597,549.7972,671.9323,564.567,672.2544" style="stroke: #2F4F4F; stroke-width: 1.5;"/><!--MD5=[9dcd261e871ab059ac3c9e798b439798]
link Logged In User to Logout--><path d="M1060.392,412.0674 C1082.4285,441.4494 1107.7545,475.2174 1124.961,498.1599 " fill="none" id="Logged In User-&gt;Logout" style="stroke: #2F4F4F; stroke-width: 1.5;"/><polygon fill="#2F4F4F" points="1129.59,504.3309,1126.29,489.9309,1125.09,498.3309,1116.69,497.1309,1129.59,504.3309" style="stroke: #2F4F4F; stroke-width: 1.5;"/><!--MD5=[bc08078fe6b4b6cd377a03c2fe9a9624]
link Logged In User to Create a car--><path d="M955.992,412.0674 C927.555,441.5199 894.864,475.3794 872.709,498.3249 " fill="none" id="Logged In User-&gt;Create a car" style="stroke: #2F4F4F; stroke-width: 1.5;"/><polygon fill="#2F4F4F" points="867.3135,503.9139,881.0067,498.3691,872.5228,498.5182,872.3736,490.0343,867.3135,503.9139" style="stroke: #2F4F4F; stroke-width: 1.5;"/><!--MD5=[1334dc9d23a384c6379f8b7e1f375294]
link Logged In User to List cars--><path d="M1012.845,412.3359 C1008.411,455.5749 995.922,512.3259 962.25,549.9609 C885.5145,635.7258 749.4975,668.904 668.877,681.4257 " fill="none" id="Logged In User-&gt;List cars" style="stroke: #2F4F4F; stroke-width: 1.5;"/><polygon fill="#2F4F4F" points="661.2525,682.5741,675.4952,686.4977,668.6689,681.4577,673.7089,674.6314,661.2525,682.5741" style="stroke: #2F4F4F; stroke-width: 1.5;"/><!--MD5=[50fd5d8decc7859425179d2280f5d12b]
link Admin to List cars--><path d="M639.606,412.1094 C653.031,467.7969 665.955,551.9094 645.75,621.9609 C641.79,635.6877 634.0815,649.314 626.337,660.6411 " fill="none" id="Admin-&gt;List cars" style="stroke: #2F4F4F; stroke-width: 1.5;"/><polygon fill="#2F4F4F" points="621.543,667.3772,634.2584,659.856,625.8912,661.2662,624.4809,652.899,621.543,667.3772" style="stroke: #2F4F4F; stroke-width: 1.5;"/><!--MD5=[3f9fa888824507cd27f253ffa548970d]
link Admin to Delete a car--><path d="M592.4055,397.8399 C572.55,429.3924 546.9645,470.0469 530.1075,496.8354 " fill="none" id="Admin-&gt;Delete a car" style="stroke: #2F4F4F; stroke-width: 1.5;"/><polygon fill="#2F4F4F" points="526.0185,503.3334,538.287,495.1033,530.0131,496.9858,528.1307,488.7119,526.0185,503.3334" style="stroke: #2F4F4F; stroke-width: 1.5;"/><!--MD5=[faa7f061dcd62ac387d29ce4a174f64d]
link Admin to Create a car--><path d="M651.165,373.9584 C692.946,406.2684 769.2705,465.2934 813.2025,499.2684 " fill="none" id="Admin-&gt;Create a car" style="stroke: #2F4F4F; stroke-width: 1.5;"/><polygon fill="#2F4F4F" points="819.441,504.0924,812.4312,491.0881,813.5077,499.5048,805.091,500.5813,819.441,504.0924" style="stroke: #2F4F4F; stroke-width: 1.5;"/><!--MD5=[58c08f1cbd4361f1f7ff95bd5976fc0f]
link Delete a car to List cars--><path d="M516.921,550.1229 C521.7315,569.8352 530.424,599.1221 543.75,621.9609 C552.3885,636.7655 564.681,651.1715 575.892,662.7881 " fill="none" id="Delete a car-&gt;List cars" style="stroke: #2F4F4F; stroke-width: 1.5;"/><polygon fill="#2F4F4F" points="581.289,668.2563,576.0764,654.4332,576.0206,662.9183,567.5355,662.8626,581.289,668.2563" style="stroke: #2F4F4F; stroke-width: 1.5;"/><text fill="#000000" font-family="sans-serif" font-size="19.5" lengthAdjust="spacingAndGlyphs" textLength="93" x="545.25" y="616.7036">«includes»</text><!--MD5=[933987b91d2b08b1b4941f3221fa6cec]
reverse link User to Admin--><path d="M322.1775,142.0119 C394.6815,191.9169 531.846,286.3284 592.0995,327.8019 " fill="none" id="User&lt;-Admin" style="stroke: #2F4F4F; stroke-width: 1.5;"/><polygon fill="none" points="316.2105,150.6519,297.4515,124.9929,328.1175,133.3539,316.2105,150.6519" style="stroke: #2F4F4F; stroke-width: 1.5;"/><text fill="#000000" font-family="sans-serif" font-size="19.5" lengthAdjust="spacingAndGlyphs" textLength="90" x="461.25" y="237.2036">«extends»</text><!--MD5=[c6afee96595903151cadfca5c7228b7f]
@startuml

title
Cars - Use case diagram
end title

skinparam usecase {
	BackgroundColor White
	ArrowColor DarkSlateGray
	BorderColor DarkSlateGray
	ActorBorderColor Black
}

:User: - -> (Login)
:User: - -> (Register)
:User: - -> (List cars)

:Logged In User: - -> (Logout)
:Logged In User: - -> (Create a car)
:Logged In User: - -> (List cars)

:Admin: - -> (List cars)
:Admin: - -> (Delete a car)
:Admin: - -> (Create a car)
(Delete a car) - -> (List cars) : <<includes>>

:User: <|- - :Admin: : <<extends>>

@enduml

PlantUML version 1.2020.07(Sun Apr 19 13:42:40 CEST 2020)
(GPL source distribution)
Java Runtime: OpenJDK Runtime Environment
JVM: OpenJDK 64-Bit Server VM
Java Version: 11.0.6+8-b765.38
Operating System: Windows 10
Default Encoding: Cp1252
Language: en
Country: US
--></g></svg>